<?xml version="1.0" encoding="UTF-8" standalone="no"?>
<!DOCTYPE svg PUBLIC "-//W3C//DTD SVG 1.1//EN"
 "http://www.w3.org/Graphics/SVG/1.1/DTD/svg11.dtd">
<!-- Generated by graphviz version 2.40.1 (20161225.0304)
 -->
<!-- Title: parsed Pages: 1 -->
<svg width="714pt" height="332pt"
 viewBox="0.00 0.00 714.00 332.00" xmlns="http://www.w3.org/2000/svg" xmlns:xlink="http://www.w3.org/1999/xlink">
<g id="graph0" class="graph" transform="scale(1 1) rotate(0) translate(4 328)">
<title>parsed</title>
<polygon fill="#ffffff" stroke="transparent" points="-4,4 -4,-328 710,-328 710,4 -4,4"/>
<!-- N0 -->
<g id="node1" class="node">
<title>N0</title>
<ellipse fill="#e0eeee" stroke="#000000" cx="355" cy="-306" rx="27" ry="18"/>
<text text-anchor="middle" x="355" y="-302.3" font-family="Times,serif" font-size="14.00" fill="#000000">S</text>
</g>
<!-- N1 -->
<g id="node2" class="node">
<title>N1</title>
<ellipse fill="#c1cdcd" stroke="#000000" cx="27" cy="-234" rx="27" ry="18"/>
<text text-anchor="middle" x="27" y="-230.3" font-family="Times,serif" font-size="14.00" fill="#000000">var</text>
</g>
<!-- N0&#45;&gt;N1 -->
<g id="edge1" class="edge">
<title>N0&#45;&gt;N1</title>
<path fill="none" stroke="#000000" d="M328.1987,-303.582C276.0131,-298.3243 157.5902,-283.6884 63,-252 61.1116,-251.3674 59.1976,-250.6525 57.2869,-249.8816"/>
<polygon fill="#000000" stroke="#000000" points="58.4542,-246.5696 47.8968,-245.6806 55.5956,-252.9593 58.4542,-246.5696"/>
</g>
<!-- N2 -->
<g id="node3" class="node">
<title>N2</title>
<ellipse fill="#e0eeee" stroke="#000000" cx="99" cy="-234" rx="27" ry="18"/>
<text text-anchor="middle" x="99" y="-230.3" font-family="Times,serif" font-size="14.00" fill="#000000">X</text>
</g>
<!-- N0&#45;&gt;N2 -->
<g id="edge2" class="edge">
<title>N0&#45;&gt;N2</title>
<path fill="none" stroke="#000000" d="M328.7001,-301.5116C286.8588,-293.937 202.9226,-276.961 135,-252 133.1307,-251.3131 131.2315,-250.556 129.3321,-249.7529"/>
<polygon fill="#000000" stroke="#000000" points="130.5214,-246.448 119.9722,-245.4658 127.6064,-252.8122 130.5214,-246.448"/>
</g>
<!-- N6 -->
<g id="node7" class="node">
<title>N6</title>
<ellipse fill="#c1cdcd" stroke="#000000" cx="171" cy="-234" rx="27" ry="18"/>
<text text-anchor="middle" x="171" y="-230.3" font-family="Times,serif" font-size="14.00" fill="#000000">:</text>
</g>
<!-- N0&#45;&gt;N6 -->
<g id="edge6" class="edge">
<title>N0&#45;&gt;N6</title>
<path fill="none" stroke="#000000" d="M330.5726,-298.0402C300.9564,-288.1724 249.7036,-270.3956 207,-252 205.2191,-251.2328 203.4013,-250.4205 201.5755,-249.5818"/>
<polygon fill="#000000" stroke="#000000" points="203.0462,-246.4055 192.5139,-245.2555 200.0302,-252.7225 203.0462,-246.4055"/>
</g>
<!-- N7 -->
<g id="node8" class="node">
<title>N7</title>
<ellipse fill="#c1cdcd" stroke="#000000" cx="245" cy="-234" rx="28.6953" ry="18"/>
<text text-anchor="middle" x="245" y="-230.3" font-family="Times,serif" font-size="14.00" fill="#000000">array</text>
</g>
<!-- N0&#45;&gt;N7 -->
<g id="edge7" class="edge">
<title>N0&#45;&gt;N7</title>
<path fill="none" stroke="#000000" d="M335.5874,-293.2936C318.365,-282.0207 292.9838,-265.4076 273.4658,-252.6322"/>
<polygon fill="#000000" stroke="#000000" points="275.2449,-249.6136 264.961,-247.0654 271.4112,-255.4705 275.2449,-249.6136"/>
</g>
<!-- N8 -->
<g id="node9" class="node">
<title>N8</title>
<ellipse fill="#c1cdcd" stroke="#000000" cx="319" cy="-234" rx="27" ry="18"/>
<text text-anchor="middle" x="319" y="-230.3" font-family="Times,serif" font-size="14.00" fill="#000000">[</text>
</g>
<!-- N0&#45;&gt;N8 -->
<g id="edge8" class="edge">
<title>N0&#45;&gt;N8</title>
<path fill="none" stroke="#000000" d="M346.2854,-288.5708C342.0403,-280.0807 336.8464,-269.6929 332.1337,-260.2674"/>
<polygon fill="#000000" stroke="#000000" points="335.237,-258.6477 327.6343,-251.2687 328.976,-261.7782 335.237,-258.6477"/>
</g>
<!-- N9 -->
<g id="node10" class="node">
<title>N9</title>
<ellipse fill="#e0eeee" stroke="#000000" cx="391" cy="-234" rx="27" ry="18"/>
<text text-anchor="middle" x="391" y="-230.3" font-family="Times,serif" font-size="14.00" fill="#000000">D</text>
</g>
<!-- N0&#45;&gt;N9 -->
<g id="edge9" class="edge">
<title>N0&#45;&gt;N9</title>
<path fill="none" stroke="#000000" d="M363.7146,-288.5708C367.9597,-280.0807 373.1536,-269.6929 377.8663,-260.2674"/>
<polygon fill="#000000" stroke="#000000" points="381.024,-261.7782 382.3657,-251.2687 374.763,-258.6477 381.024,-261.7782"/>
</g>
<!-- N19 -->
<g id="node20" class="node">
<title>N19</title>
<ellipse fill="#c1cdcd" stroke="#000000" cx="463" cy="-234" rx="27" ry="18"/>
<text text-anchor="middle" x="463" y="-230.3" font-family="Times,serif" font-size="14.00" fill="#000000">]</text>
</g>
<!-- N0&#45;&gt;N19 -->
<g id="edge19" class="edge">
<title>N0&#45;&gt;N19</title>
<path fill="none" stroke="#000000" d="M374.3082,-293.1278C391.3555,-281.763 416.4019,-265.0654 435.5344,-252.3104"/>
<polygon fill="#000000" stroke="#000000" points="437.4799,-255.2199 443.8589,-246.7607 433.5969,-249.3956 437.4799,-255.2199"/>
</g>
<!-- N20 -->
<g id="node21" class="node">
<title>N20</title>
<ellipse fill="#c1cdcd" stroke="#000000" cx="535" cy="-234" rx="27" ry="18"/>
<text text-anchor="middle" x="535" y="-230.3" font-family="Times,serif" font-size="14.00" fill="#000000">of</text>
</g>
<!-- N0&#45;&gt;N20 -->
<g id="edge20" class="edge">
<title>N0&#45;&gt;N20</title>
<path fill="none" stroke="#000000" d="M379.2584,-297.7783C408.131,-287.7927 457.6385,-270.0365 499,-252 500.7774,-251.2249 502.5926,-250.4064 504.4163,-249.5629"/>
<polygon fill="#000000" stroke="#000000" points="505.9666,-252.7011 513.4722,-245.2234 502.9416,-246.3885 505.9666,-252.7011"/>
</g>
<!-- N21 -->
<g id="node22" class="node">
<title>N21</title>
<ellipse fill="#e0eeee" stroke="#000000" cx="607" cy="-234" rx="27" ry="18"/>
<text text-anchor="middle" x="607" y="-230.3" font-family="Times,serif" font-size="14.00" fill="#000000">T</text>
</g>
<!-- N0&#45;&gt;N21 -->
<g id="edge21" class="edge">
<title>N0&#45;&gt;N21</title>
<path fill="none" stroke="#000000" d="M381.1532,-301.3813C422.3398,-293.6838 504.4755,-276.609 571,-252 572.8678,-251.3091 574.7659,-250.5489 576.6644,-249.7434"/>
<polygon fill="#000000" stroke="#000000" points="578.3926,-252.8014 586.022,-245.4499 575.4734,-246.4391 578.3926,-252.8014"/>
</g>
<!-- N23 -->
<g id="node24" class="node">
<title>N23</title>
<ellipse fill="#c1cdcd" stroke="#000000" cx="679" cy="-234" rx="27" ry="18"/>
<text text-anchor="middle" x="679" y="-230.3" font-family="Times,serif" font-size="14.00" fill="#000000">;</text>
</g>
<!-- N0&#45;&gt;N23 -->
<g id="edge23" class="edge">
<title>N0&#45;&gt;N23</title>
<path fill="none" stroke="#000000" d="M381.8337,-303.486C433.5063,-298.0994 549.9424,-283.3035 643,-252 644.8876,-251.365 646.801,-250.6484 648.7112,-249.8761"/>
<polygon fill="#000000" stroke="#000000" points="650.4041,-252.953 658.1001,-245.6714 647.543,-246.5643 650.4041,-252.953"/>
</g>
<!-- N3 -->
<g id="node4" class="node">
<title>N3</title>
<ellipse fill="#c1cdcd" stroke="#000000" cx="63" cy="-162" rx="27" ry="18"/>
<text text-anchor="middle" x="63" y="-158.3" font-family="Times,serif" font-size="14.00" fill="#000000">x</text>
</g>
<!-- N2&#45;&gt;N3 -->
<g id="edge3" class="edge">
<title>N2&#45;&gt;N3</title>
<path fill="none" stroke="#000000" d="M90.2854,-216.5708C86.0403,-208.0807 80.8464,-197.6929 76.1337,-188.2674"/>
<polygon fill="#000000" stroke="#000000" points="79.237,-186.6477 71.6343,-179.2687 72.976,-189.7782 79.237,-186.6477"/>
</g>
<!-- N4 -->
<g id="node5" class="node">
<title>N4</title>
<ellipse fill="#e0eeee" stroke="#000000" cx="135" cy="-162" rx="27" ry="18"/>
<text text-anchor="middle" x="135" y="-158.3" font-family="Times,serif" font-size="14.00" fill="#000000">X&#39;&#39;</text>
</g>
<!-- N2&#45;&gt;N4 -->
<g id="edge4" class="edge">
<title>N2&#45;&gt;N4</title>
<path fill="none" stroke="#000000" d="M107.7146,-216.5708C111.9597,-208.0807 117.1536,-197.6929 121.8663,-188.2674"/>
<polygon fill="#000000" stroke="#000000" points="125.024,-189.7782 126.3657,-179.2687 118.763,-186.6477 125.024,-189.7782"/>
</g>
<!-- N5 -->
<g id="node6" class="node">
<title>N5</title>
<ellipse fill="#c1cdcd" stroke="#000000" cx="135" cy="-90" rx="27" ry="18"/>
<text text-anchor="middle" x="135" y="-86.3" font-family="Times,serif" font-size="14.00" fill="#000000">ε</text>
</g>
<!-- N4&#45;&gt;N5 -->
<g id="edge5" class="edge">
<title>N4&#45;&gt;N5</title>
<path fill="none" stroke="#000000" d="M135,-143.8314C135,-136.131 135,-126.9743 135,-118.4166"/>
<polygon fill="#000000" stroke="#000000" points="138.5001,-118.4132 135,-108.4133 131.5001,-118.4133 138.5001,-118.4132"/>
</g>
<!-- N10 -->
<g id="node11" class="node">
<title>N10</title>
<ellipse fill="#e0eeee" stroke="#000000" cx="389" cy="-162" rx="27" ry="18"/>
<text text-anchor="middle" x="389" y="-158.3" font-family="Times,serif" font-size="14.00" fill="#000000">R</text>
</g>
<!-- N9&#45;&gt;N10 -->
<g id="edge10" class="edge">
<title>N9&#45;&gt;N10</title>
<path fill="none" stroke="#000000" d="M390.4953,-215.8314C390.2814,-208.131 390.0271,-198.9743 389.7894,-190.4166"/>
<polygon fill="#000000" stroke="#000000" points="393.2879,-190.3122 389.5115,-180.4133 386.2906,-190.5066 393.2879,-190.3122"/>
</g>
<!-- N17 -->
<g id="node18" class="node">
<title>N17</title>
<ellipse fill="#e0eeee" stroke="#000000" cx="494" cy="-162" rx="27" ry="18"/>
<text text-anchor="middle" x="494" y="-158.3" font-family="Times,serif" font-size="14.00" fill="#000000">D&#39;&#39;</text>
</g>
<!-- N9&#45;&gt;N17 -->
<g id="edge17" class="edge">
<title>N9&#45;&gt;N17</title>
<path fill="none" stroke="#000000" d="M409.8918,-220.7941C425.8629,-209.6298 448.9416,-193.4971 466.8854,-180.9539"/>
<polygon fill="#000000" stroke="#000000" points="469.0372,-183.7201 475.228,-175.1222 465.0266,-177.9829 469.0372,-183.7201"/>
</g>
<!-- N11 -->
<g id="node12" class="node">
<title>N11</title>
<ellipse fill="#e0eeee" stroke="#000000" cx="245" cy="-90" rx="27" ry="18"/>
<text text-anchor="middle" x="245" y="-86.3" font-family="Times,serif" font-size="14.00" fill="#000000">N</text>
</g>
<!-- N10&#45;&gt;N11 -->
<g id="edge11" class="edge">
<title>N10&#45;&gt;N11</title>
<path fill="none" stroke="#000000" d="M367.1295,-151.0647C342.7778,-138.8889 303.238,-119.119 275.7715,-105.3858"/>
<polygon fill="#000000" stroke="#000000" points="277.114,-102.1439 266.6045,-100.8022 273.9835,-108.4049 277.114,-102.1439"/>
</g>
<!-- N13 -->
<g id="node14" class="node">
<title>N13</title>
<ellipse fill="#c1cdcd" stroke="#000000" cx="317" cy="-90" rx="27" ry="18"/>
<text text-anchor="middle" x="317" y="-86.3" font-family="Times,serif" font-size="14.00" fill="#000000">.</text>
</g>
<!-- N10&#45;&gt;N13 -->
<g id="edge13" class="edge">
<title>N10&#45;&gt;N13</title>
<path fill="none" stroke="#000000" d="M373.7307,-146.7307C363.803,-136.803 350.6847,-123.6847 339.5637,-112.5637"/>
<polygon fill="#000000" stroke="#000000" points="341.7933,-109.8436 332.2473,-105.2473 336.8436,-114.7933 341.7933,-109.8436"/>
</g>
<!-- N14 -->
<g id="node15" class="node">
<title>N14</title>
<ellipse fill="#c1cdcd" stroke="#000000" cx="389" cy="-90" rx="27" ry="18"/>
<text text-anchor="middle" x="389" y="-86.3" font-family="Times,serif" font-size="14.00" fill="#000000">.</text>
</g>
<!-- N10&#45;&gt;N14 -->
<g id="edge14" class="edge">
<title>N10&#45;&gt;N14</title>
<path fill="none" stroke="#000000" d="M389,-143.8314C389,-136.131 389,-126.9743 389,-118.4166"/>
<polygon fill="#000000" stroke="#000000" points="392.5001,-118.4132 389,-108.4133 385.5001,-118.4133 392.5001,-118.4132"/>
</g>
<!-- N15 -->
<g id="node16" class="node">
<title>N15</title>
<ellipse fill="#e0eeee" stroke="#000000" cx="461" cy="-90" rx="27" ry="18"/>
<text text-anchor="middle" x="461" y="-86.3" font-family="Times,serif" font-size="14.00" fill="#000000">N</text>
</g>
<!-- N10&#45;&gt;N15 -->
<g id="edge15" class="edge">
<title>N10&#45;&gt;N15</title>
<path fill="none" stroke="#000000" d="M404.2693,-146.7307C414.197,-136.803 427.3153,-123.6847 438.4363,-112.5637"/>
<polygon fill="#000000" stroke="#000000" points="441.1564,-114.7933 445.7527,-105.2473 436.2067,-109.8436 441.1564,-114.7933"/>
</g>
<!-- N12 -->
<g id="node13" class="node">
<title>N12</title>
<ellipse fill="#c1cdcd" stroke="#000000" cx="245" cy="-18" rx="27" ry="18"/>
<text text-anchor="middle" x="245" y="-14.3" font-family="Times,serif" font-size="14.00" fill="#000000">1</text>
</g>
<!-- N11&#45;&gt;N12 -->
<g id="edge12" class="edge">
<title>N11&#45;&gt;N12</title>
<path fill="none" stroke="#000000" d="M245,-71.8314C245,-64.131 245,-54.9743 245,-46.4166"/>
<polygon fill="#000000" stroke="#000000" points="248.5001,-46.4132 245,-36.4133 241.5001,-46.4133 248.5001,-46.4132"/>
</g>
<!-- N16 -->
<g id="node17" class="node">
<title>N16</title>
<ellipse fill="#c1cdcd" stroke="#000000" cx="461" cy="-18" rx="27" ry="18"/>
<text text-anchor="middle" x="461" y="-14.3" font-family="Times,serif" font-size="14.00" fill="#000000">10</text>
</g>
<!-- N15&#45;&gt;N16 -->
<g id="edge16" class="edge">
<title>N15&#45;&gt;N16</title>
<path fill="none" stroke="#000000" d="M461,-71.8314C461,-64.131 461,-54.9743 461,-46.4166"/>
<polygon fill="#000000" stroke="#000000" points="464.5001,-46.4132 461,-36.4133 457.5001,-46.4133 464.5001,-46.4132"/>
</g>
<!-- N18 -->
<g id="node19" class="node">
<title>N18</title>
<ellipse fill="#c1cdcd" stroke="#000000" cx="533" cy="-90" rx="27" ry="18"/>
<text text-anchor="middle" x="533" y="-86.3" font-family="Times,serif" font-size="14.00" fill="#000000">ε</text>
</g>
<!-- N17&#45;&gt;N18 -->
<g id="edge18" class="edge">
<title>N17&#45;&gt;N18</title>
<path fill="none" stroke="#000000" d="M503.2425,-144.937C507.9537,-136.2393 513.7817,-125.4799 519.0278,-115.7948"/>
<polygon fill="#000000" stroke="#000000" points="522.1385,-117.4005 523.8239,-106.9405 515.9835,-114.0664 522.1385,-117.4005"/>
</g>
<!-- N22 -->
<g id="node23" class="node">
<title>N22</title>
<ellipse fill="#c1cdcd" stroke="#000000" cx="607" cy="-162" rx="35.194" ry="18"/>
<text text-anchor="middle" x="607" y="-158.3" font-family="Times,serif" font-size="14.00" fill="#000000">integer</text>
</g>
<!-- N21&#45;&gt;N22 -->
<g id="edge22" class="edge">
<title>N21&#45;&gt;N22</title>
<path fill="none" stroke="#000000" d="M607,-215.8314C607,-208.131 607,-198.9743 607,-190.4166"/>
<polygon fill="#000000" stroke="#000000" points="610.5001,-190.4132 607,-180.4133 603.5001,-190.4133 610.5001,-190.4132"/>
</g>
</g>
</svg>
